<svg xmlns="http://www.w3.org/2000/svg" width="166" height="167" viewBox="0 0 166 167">
  <g id="Group_550" data-name="Group 550" transform="translate(-4259.587 12848.551)">
    <g id="Ellipse_52" data-name="Ellipse 52" transform="translate(4259.587 -12848.551)" fill="none" stroke="currentColor" stroke-width="5">
      <ellipse cx="83" cy="83.5" rx="83" ry="83.5" stroke="none"/>
      <ellipse cx="83" cy="83.5" rx="80.5" ry="81" fill="none"/>
    </g>
    <g id="noun_leaves_1637834" transform="translate(4290.357 -12796.962)">
      <path id="Path_89" data-name="Path 89" d="M40.946,68.72a24.243,24.243,0,0,1-15.81-5.873C16.568,55.469,5.8,36.95,5.276,25.019a4.713,4.713,0,0,1,3.588-4.775,72.91,72.91,0,0,1,16.4-1.628c5.348,0,23.425.542,31.509,7.5a24.236,24.236,0,0,1-15.829,42.6ZM25.264,23.254a69.268,69.268,0,0,0-15.3,1.5c.376,9.74,9.588,27.16,18.2,34.58a19.6,19.6,0,1,0,25.582-29.7C49.246,25.759,38.067,23.254,25.264,23.254Z" transform="translate(-5.271 -18.616)" fill="currentColor"/>
      <path id="Path_90" data-name="Path 90" d="M74.058,61.762a14.614,14.614,0,0,1-13.34-7.842,14.009,14.009,0,0,1-.325-11.59,17.062,17.062,0,0,1,8.335-8.861c4.563-2.263,11.482-2.6,15.2-2.6A47.365,47.365,0,0,1,97.955,32.69a3.567,3.567,0,0,1,2.322,4.281C98.313,44.648,88.842,56.437,81.85,59.908A17.637,17.637,0,0,1,74.058,61.762Zm9.871-26.254c-5.636,0-10.425.771-13.139,2.118A12.436,12.436,0,0,0,64.7,44.058a9.433,9.433,0,0,0,.176,7.8,10.011,10.011,0,0,0,9.183,5.267,12.95,12.95,0,0,0,5.727-1.37C85.334,53,93.318,43.253,95.493,36.786A47.119,47.119,0,0,0,83.929,35.508Z" transform="translate(3.361 -16.658)" fill="currentColor"/>
      <path id="Path_91" data-name="Path 91" d="M62.941,89.2a2.323,2.323,0,0,1-2.291-1.961C53.9,43.8,31.042,37.1,30.813,37.034a2.319,2.319,0,1,1,1.219-4.476c1.058.289,25.994,7.588,33.2,53.964A2.32,2.32,0,0,1,63.3,89.17,2.5,2.5,0,0,1,62.941,89.2Z" transform="translate(-1.464 -16.401)" fill="currentColor"/>
      <path id="Path_92" data-name="Path 92" d="M56.117,73.856a2.293,2.293,0,0,1-.433-.041,2.317,2.317,0,0,1-1.849-2.709C58.925,44.159,83.895,39.345,84.146,39.3a2.32,2.32,0,0,1,.829,4.565h0a34.72,34.72,0,0,0-26.582,28.1A2.321,2.321,0,0,1,56.117,73.856Z" transform="translate(2.481 -15.317)" fill="currentColor"/>
      <ellipse id="Ellipse_54" data-name="Ellipse 54" cx="2.52" cy="2.52" rx="2.52" ry="2.52" transform="translate(19.107 11.961)" fill="currentColor"/>
      <ellipse id="Ellipse_55" data-name="Ellipse 55" cx="2.52" cy="2.52" rx="2.52" ry="2.52" transform="translate(40.294 36.177)" fill="currentColor"/>
      <ellipse id="Ellipse_56" data-name="Ellipse 56" cx="2.52" cy="2.52" rx="2.52" ry="2.52" transform="translate(42.813 17)" fill="currentColor"/>
    </g>
  </g>
</svg>
