<svg xmlns="http://www.w3.org/2000/svg" width="167" height="168" viewBox="0 0 167 168">
  <g id="Group_554" data-name="Group 554" transform="translate(-4554.587 12550.551)">
    <g id="noun_drugs_3334717" transform="translate(4609.519 -12504.597)">
      <g id="Group_475" data-name="Group 475" transform="translate(0 0)">
        <path id="Path_204" data-name="Path 204" d="M60.423,30.282a10.855,10.855,0,0,1-3.2-7.724V18.492H60.97a1.875,1.875,0,0,0,1.874-1.874V5.374A1.875,1.875,0,0,0,60.97,3.5H12.248a1.875,1.875,0,0,0-1.874,1.874V16.618a1.875,1.875,0,0,0,1.874,1.874H16v4.066a10.84,10.84,0,0,1-3.2,7.724A14.587,14.587,0,0,0,8.5,40.657v44.36A12.2,12.2,0,0,0,20.681,97.2H52.538A12.2,12.2,0,0,0,64.718,85.017V40.657A14.587,14.587,0,0,0,60.423,30.282ZM14.122,7.248H59.1v7.5H14.122ZM12.248,74.71H36.609a1.874,1.874,0,1,0,0-3.748H12.248V67.214H36.609a1.874,1.874,0,1,0,0-3.748H12.248V59.718H36.609a1.874,1.874,0,1,0,0-3.748H12.248V52.223H45.979V78.458H12.248ZM60.97,85.017a8.441,8.441,0,0,1-8.433,8.433H20.681a8.441,8.441,0,0,1-8.433-8.433V82.206h35.6a1.875,1.875,0,0,0,1.874-1.874V50.349a1.875,1.875,0,0,0-1.874-1.874h-35.6V40.657a10.853,10.853,0,0,1,3.2-7.724,14.574,14.574,0,0,0,4.3-10.374V18.492H53.475v4.066a14.574,14.574,0,0,0,4.3,10.374,10.868,10.868,0,0,1,3.2,7.724Z" transform="translate(-8.5 -3.5)" fill="currentColor"/>
      </g>
    </g>
    <g id="Ellipse_104" data-name="Ellipse 104" transform="translate(4554.587 -12550.551)" fill="none" stroke="currentColor" stroke-width="5">
      <ellipse cx="83.5" cy="84" rx="83.5" ry="84" stroke="none"/>
      <ellipse cx="83.5" cy="84" rx="81" ry="81.5" fill="none"/>
    </g>
    <path id="Path_208" data-name="Path 208" d="M13,44.771a2.97,2.97,0,0,0,1.222-.175,9.091,9.091,0,0,0,7.68-10.3l-3.84-26.53A9.188,9.188,0,0,0,7.769.089,8.735,8.735,0,0,0,1.834,3.58,9.156,9.156,0,0,0,.089,10.212l3.84,26.53A9.2,9.2,0,0,0,13,44.771ZM18.416,35a5.554,5.554,0,0,1-11,1.571L5.674,25.048l11-1.571ZM4.627,5.849A5.3,5.3,0,0,1,8.292,3.754a5.531,5.531,0,0,1,6.283,4.713l1.745,11.52-11,1.571L3.58,10.038A5.852,5.852,0,0,1,4.627,5.849Z" transform="translate(4671.011 -12532.438) rotate(90)" fill="currentColor"/>
    <path id="Path_209" data-name="Path 209" d="M99.474,61.992l-17.1-20.6a9.1,9.1,0,0,0-12.741-1.222,9.3,9.3,0,0,0-3.316,6.109,9.192,9.192,0,0,0,2.094,6.632l17.1,20.77A9.3,9.3,0,0,0,91.619,77h.873a8.676,8.676,0,0,0,5.76-2.094A9.327,9.327,0,0,0,99.474,61.992ZM71.024,50.647A5.77,5.77,0,0,1,69.8,46.633a6.733,6.733,0,0,1,1.92-3.84,5.7,5.7,0,0,1,7.854.7l7.505,9.076-8.552,7.156ZM95.983,72.115a5.77,5.77,0,0,1-4.014,1.222,6.733,6.733,0,0,1-3.84-1.92L80.8,62.341l8.552-7.156,7.505,9.076A5.561,5.561,0,0,1,95.983,72.115Z" transform="translate(4602.202 -12556.146)" fill="currentColor"/>
  </g>
</svg>
