<svg xmlns="http://www.w3.org/2000/svg" width="119" height="120" viewBox="0 0 119 120">
  <g id="Group_560" data-name="Group 560" transform="translate(-618 -2648)">
    <g id="Ellipse_53" data-name="Ellipse 53" transform="translate(618 2648)" fill="none" stroke="currentColor" stroke-width="5">
      <ellipse cx="59.5" cy="60" rx="59.5" ry="60" stroke="none"/>
      <ellipse cx="59.5" cy="60" rx="57" ry="57.5" fill="none"/>
    </g>
    <g id="noun_sanitising_gel_3771177" data-name="noun_sanitising gel_3771177" transform="translate(-386.857 1800.05)">
      <g id="Group_423" data-name="Group 423" transform="translate(1023.904 867.873)">
        <path id="Path_155" data-name="Path 155" d="M50.453,7.306a1.641,1.641,0,0,0-2.217,0A87.5,87.5,0,0,0,32.552,27.1,21.415,21.415,0,0,0,21.959,68.565a23.418,23.418,0,0,0,5.338.9A25.424,25.424,0,0,0,74.842,56.9C74.76,29.313,51.439,8.209,50.453,7.306ZM22.862,65.444A17.9,17.9,0,0,1,16.457,62l4.106-4.106a27.006,27.006,0,0,0,3.613,2.3,28.2,28.2,0,0,0,3.613,1.56,22.257,22.257,0,0,0,4.188.9h.575a5.916,5.916,0,0,0,3.613-1.314,5.8,5.8,0,0,0,2.053-3.859A5.7,5.7,0,0,0,36.9,53.291a5.8,5.8,0,0,0-3.859-2.053,10.356,10.356,0,0,1-4.27-1.56l13.3-13.3A18.127,18.127,0,0,1,36.74,63.966,18.605,18.605,0,0,1,29.267,66.1a17.765,17.765,0,0,1-3.613-.164A15.254,15.254,0,0,1,22.862,65.444ZM10.709,42.862A18.152,18.152,0,0,1,28.117,29.97a17.728,17.728,0,0,1,2.874.246c.821.164,1.56.328,2.381.575.328.082.657.246.985.328a17.657,17.657,0,0,1,5.42,3.12l-4.845,4.845L34.44,39a5.156,5.156,0,0,0-.246-1.56l.739-.411a.918.918,0,1,0-.821-1.642l-.739.411a4.3,4.3,0,0,0-.9-.821.427.427,0,0,0-.328-.164l.328-.739a.938.938,0,1,0-1.724-.739l-.328.739a6.215,6.215,0,0,0-1.232-.082h-.328l-.246-.821a.909.909,0,1,0-1.724.575l.246.821a3.636,3.636,0,0,0-1.232.985l-.739-.411a.9.9,0,0,0-.9,1.56l.739.411c-.082.082-.082.246-.164.328a6.339,6.339,0,0,0-.164,1.232l-.821.082a1.063,1.063,0,0,0-.821,1.068.956.956,0,0,0,.9.821h.164l.821-.082a2.917,2.917,0,0,0,.328.739,4.584,4.584,0,0,0,.411.657L25,42.37a.917.917,0,0,0,.082,1.314.745.745,0,0,0,.575.246h.082a.747.747,0,0,0,.657-.328l.575-.657a5.5,5.5,0,0,0,1.478.575v.821a1.041,1.041,0,0,0,.328.739l-2.628,2.628a7.091,7.091,0,0,1-1.068-1.15,13.932,13.932,0,0,1-1.4-1.889,5.715,5.715,0,0,0-7.8-2.053,5.641,5.641,0,0,0-2.135,7.637l.082.164a24.855,24.855,0,0,0,4.27,5.338L16.457,57.4v-.082a.909.909,0,0,0-1.724-.575,1,1,0,0,0,.575,1.15c.164.082.411,0,.575,0l-1.724,1.724A17.985,17.985,0,0,1,10.709,42.862ZM31.895,53.948h.164a.962.962,0,0,0,.9-.739h0a3.518,3.518,0,0,1,1.314.411.985.985,0,0,0,.082,1.232.932.932,0,0,0,.657.246.887.887,0,0,0,.575-.246,3.773,3.773,0,0,1,.575,1.314.965.965,0,0,0-.821.9.9.9,0,0,0,.821.9,3.773,3.773,0,0,1-.575,1.314.892.892,0,0,0-1.232,0,1,1,0,0,0-.164,1.232,3.938,3.938,0,0,1-1.4.411.844.844,0,0,0-.821-.9.91.91,0,0,0-.985.821c-.493-.082-.9-.164-1.4-.246a1.007,1.007,0,0,0-.657-1.15h0a.887.887,0,0,0-1.15.575c-.164-.082-.328-.082-.411-.164-.328-.082-.575-.246-.9-.328a1.018,1.018,0,0,0-.411-1.232.958.958,0,0,0-1.232.411c-.328-.164-.575-.328-.9-.493a.623.623,0,0,0-.328-.164.888.888,0,0,0-1.478-.985c-.082-.082-.164-.082-.246-.164l5.5-5.5c.082.082.164.082.246.164.164.082.411.246.575.328h0a.933.933,0,0,0,.411,1.232.74.74,0,0,0,.411.082.9.9,0,0,0,.821-.493h0c.411.164.9.328,1.314.493h0C31.074,53.373,31.4,53.866,31.895,53.948Zm-13.3-.246a.9.9,0,0,0,.082-1.232.917.917,0,0,0-1.314-.082c-.328-.411-.575-.739-.9-1.15a.888.888,0,0,0-.985-1.478.287.287,0,0,0-.082-.164l-.082-.082a4.629,4.629,0,0,1-.328-.985.965.965,0,0,0,.821-.9.9.9,0,0,0-.821-.9,2.845,2.845,0,0,1,.657-1.314.887.887,0,0,0,.575.246.745.745,0,0,0,.575-.246.9.9,0,0,0,.164-1.15,3.938,3.938,0,0,1,1.4-.411.962.962,0,0,0,.739.9h.164a.961.961,0,0,0,.9-.657,4.9,4.9,0,0,1,1.232.739.9.9,0,0,0-.164,1.15.98.98,0,0,0,.739.411,1.167,1.167,0,0,0,.493-.164,9.963,9.963,0,0,0,.821,1.15h0a.917.917,0,0,0-.082,1.314,1.014,1.014,0,0,0,.657.328,1.092,1.092,0,0,0,.657-.246h0a.287.287,0,0,0,.164.082c.082.082.164.082.164.164l-5.42,5.42A7.4,7.4,0,0,1,18.592,53.7Zm8.13-13.467h0a3.011,3.011,0,0,1-.246-2.381,2.748,2.748,0,0,1,1.478-1.807c.082-.082.164-.082.328-.164a2.9,2.9,0,0,1,1.15-.246,3.325,3.325,0,0,1,2.217.9,4.513,4.513,0,0,1,.575.739,3.1,3.1,0,0,1-1.232,4.188,2.41,2.41,0,0,1-1.314.328A3.062,3.062,0,0,1,26.722,40.235ZM49.386,79.076A21.944,21.944,0,0,1,31.074,69.3,20.813,20.813,0,0,0,38.3,66.923a21.452,21.452,0,0,0-2.381-38.841A85.988,85.988,0,0,1,49.386,10.837c4.6,4.516,22.171,23.321,22.171,46.067A22.29,22.29,0,0,1,49.386,79.076Z" transform="translate(-6.617 -6.875)" fill="currentColor"/>
        <path id="Path_156" data-name="Path 156" d="M46.885,59.435a2.848,2.848,0,1,0-3.859-1.15,2.709,2.709,0,0,0,2.463,1.478A2.516,2.516,0,0,0,46.885,59.435Zm-2.217-2.053a.957.957,0,0,1,.411-1.314,1.042,1.042,0,0,1,.493-.082,1.135,1.135,0,0,1,.9.493.8.8,0,0,1,.082.739.868.868,0,0,1-.493.575A1.076,1.076,0,0,1,44.668,57.382Z" transform="translate(-13.067 -15.318)" fill="currentColor"/>
        <path id="Path_157" data-name="Path 157" d="M21.564,46.315a.957.957,0,0,0,1.15-.575.909.909,0,1,0-1.724-.575A.887.887,0,0,0,21.564,46.315Z" transform="translate(-9.178 -13.612)" fill="currentColor"/>
        <path id="Path_158" data-name="Path 158" d="M49.864,52.415a.957.957,0,0,0,1.15-.575.909.909,0,0,0-1.724-.575A.919.919,0,0,0,49.864,52.415Z" transform="translate(-14.239 -14.703)" fill="currentColor"/>
        <path id="Path_159" data-name="Path 159" d="M32.056,64.992a.75.75,0,0,0-.411.246c-.082.082-.164.164-.164.246a.98.98,0,0,0,.164,1.068l.246.246a16.481,16.481,0,0,0,4.024,1.4,1.006,1.006,0,0,0,1.232-.739.972.972,0,0,0-.739-1.232A20.694,20.694,0,0,1,32.8,64.992,2.217,2.217,0,0,0,32.056,64.992Z" transform="translate(-11.048 -17.262)" fill="currentColor"/>
      </g>
    </g>
  </g>
</svg>
