<svg xmlns="http://www.w3.org/2000/svg" width="166" height="167" viewBox="0 0 166 167">
  <g id="Group_551" data-name="Group 551" transform="translate(-4551.587 12848.551)">
    <g id="noun_drop_632613" transform="translate(4615.299 -12792.313)">
      <g id="Group_476" data-name="Group 476" transform="translate(0 0)">
        <path id="Path_205" data-name="Path 205" d="M69.366,58.657a22.329,22.329,0,1,1-44.657,0c0-12.33,22.329-49.125,22.329-49.125S69.366,46.327,69.366,58.657Z" transform="translate(-24.709 -9.532)" fill="none" stroke="currentColor" stroke-linecap="round" stroke-linejoin="round" stroke-miterlimit="10" stroke-width="4"/>
        <path id="Path_206" data-name="Path 206" d="M63.4,65.174A13.413,13.413,0,0,1,50,78.572" transform="translate(-27.671 -16.049)" fill="none" stroke="currentColor" stroke-linecap="round" stroke-linejoin="round" stroke-miterlimit="10" stroke-width="4"/>
      </g>
    </g>
    <g id="Ellipse_53" data-name="Ellipse 53" transform="translate(4551.587 -12848.551)" fill="none" stroke="currentColor" stroke-width="5">
      <ellipse cx="83" cy="83.5" rx="83" ry="83.5" stroke="none"/>
      <ellipse cx="83" cy="83.5" rx="80.5" ry="81" fill="none"/>
    </g>
    <g id="noun_leaves_1637834" transform="translate(4600.28 -12828.538)">
      <path id="Path_89" data-name="Path 89" d="M32.7,57.144a18.642,18.642,0,0,1-12.157-4.516C13.958,46.954,5.678,32.714,5.275,23.54a3.624,3.624,0,0,1,2.759-3.672,56.064,56.064,0,0,1,12.612-1.252c4.112,0,18.013.416,24.229,5.77A18.637,18.637,0,0,1,32.7,57.144ZM20.645,22.182A53.263,53.263,0,0,0,8.877,23.334c.289,7.489,7.373,20.884,14,26.59A15.07,15.07,0,1,0,42.545,27.089C39.086,24.109,30.49,22.182,20.645,22.182Z" transform="translate(-5.271 -18.616)" fill="currentColor"/>
      <path id="Path_90" data-name="Path 90" d="M70.648,54.624a11.238,11.238,0,0,1-10.258-6.03,10.772,10.772,0,0,1-.25-8.912,13.12,13.12,0,0,1,6.409-6.813c3.508-1.74,8.829-2,11.688-2a36.422,36.422,0,0,1,10.786,1.4,2.743,2.743,0,0,1,1.785,3.292C89.3,41.465,82.016,50.53,76.639,53.2A13.562,13.562,0,0,1,70.648,54.624Zm7.59-20.188c-4.334,0-8.016.593-10.1,1.628a9.563,9.563,0,0,0-4.684,4.946,7.253,7.253,0,0,0,.136,6,7.7,7.7,0,0,0,7.061,4.05A9.958,9.958,0,0,0,75.052,50c4.266-2.118,10.406-9.612,12.079-14.585A36.233,36.233,0,0,0,78.238,34.436Z" transform="translate(-11.116 -19.942)" fill="currentColor"/>
      <path id="Path_91" data-name="Path 91" d="M55.122,76.092a1.786,1.786,0,0,1-1.761-1.508c-5.192-33.4-22.767-38.554-22.944-38.6a1.783,1.783,0,0,1,.937-3.441c.813.222,19.988,5.835,25.532,41.5A1.784,1.784,0,0,1,55.4,76.071,1.92,1.92,0,0,1,55.122,76.092Z" transform="translate(-7.849 -20.116)" fill="currentColor"/>
      <path id="Path_92" data-name="Path 92" d="M55.58,65.863a1.763,1.763,0,0,1-.333-.031,1.782,1.782,0,0,1-1.422-2.083C57.739,43.027,76.94,39.326,77.134,39.291a1.784,1.784,0,0,1,.638,3.51h0A26.7,26.7,0,0,0,57.331,64.41,1.785,1.785,0,0,1,55.58,65.863Z" transform="translate(-10.521 -20.85)" fill="currentColor"/>
      <ellipse id="Ellipse_54" data-name="Ellipse 54" cx="1.938" cy="1.938" rx="1.938" ry="1.938" transform="translate(14.692 9.197)" fill="currentColor"/>
      <ellipse id="Ellipse_55" data-name="Ellipse 55" cx="1.938" cy="1.938" rx="1.938" ry="1.938" transform="translate(30.984 27.818)" fill="currentColor"/>
      <ellipse id="Ellipse_56" data-name="Ellipse 56" cx="1.938" cy="1.938" rx="1.938" ry="1.938" transform="translate(32.921 13.072)" fill="currentColor"/>
    </g>
  </g>
</svg>
