<svg xmlns="http://www.w3.org/2000/svg" width="119" height="120" viewBox="0 0 119 120">
  <g id="Group_561" data-name="Group 561" transform="translate(-618 -2929)">
    <g id="Group_272" data-name="Group 272" transform="translate(618.142 2928.982)">
      <g id="Ellipse_52" data-name="Ellipse 52" transform="translate(-0.142 0.018)" fill="none" stroke="currentColor" stroke-width="5">
        <ellipse cx="59.5" cy="60" rx="59.5" ry="60" stroke="none"/>
        <ellipse cx="59.5" cy="60" rx="57" ry="57.5" fill="none"/>
      </g>
    </g>
    <text id="_300_mg" data-name="300 mg" transform="translate(654.5 3027.793)" fill="currentColor" font-size="12" font-family="SegoeUI, Segoe UI"><tspan x="0" y="0">300 mg</tspan></text>
    <path id="Path_169" data-name="Path 169" d="M92.426,180.4c14.265-14.733,37.354,7.613,23.118,22.327l-13.626,14.09L78.829,194.471ZM81.757,220.438a3.29,3.29,0,1,1-3.288,3.293A3.293,3.293,0,0,1,81.757,220.438Zm-6.238-8.663a3.29,3.29,0,1,1-3.289,3.293A3.293,3.293,0,0,1,75.519,211.775Zm8.605-2.6a3.29,3.29,0,1,1-3.288,3.288A3.29,3.29,0,0,1,84.124,209.179ZM78.119,201.9a3.29,3.29,0,1,1-3.293,3.289A3.29,3.29,0,0,1,78.119,201.9Zm-15.99,12.281Zm9.016-19.84L61.2,184.056c-9.387-9.695-24.855,5.281-15.458,14.986L55.672,209.3Zm-6.113-13.957,13.618,14.09-23.1,22.335-13.637-14.09C27.757,188.051,50.866,165.713,65.032,180.381Zm31.222,3.7L86.313,194.36l15.464,14.966,9.948-10.284C121.1,189.365,105.641,174.382,96.254,184.077Z" transform="translate(598.749 2784.422)" fill="currentColor"/>
  </g>
</svg>
