<svg xmlns="http://www.w3.org/2000/svg" width="167" height="168" viewBox="0 0 167 168">
  <g id="Group_553" data-name="Group 553" transform="translate(-4262.587 12550.551)">
    <g id="noun_drugs_2133092" transform="translate(4295.857 -12510.442)">
      <path id="Path_188" data-name="Path 188" d="M47.622,30.686l.023-.016L33.378,10.331A17.2,17.2,0,1,0,5.211,30.089L19.352,50.25h0a5.635,5.635,0,0,0,4.9,2.12c4,0,9.346-2.274,13.812-5.406C44.8,42.247,50.344,35,47.622,30.686ZM5.379,17.767A14.128,14.128,0,0,1,30.861,12.1L42.285,28.383a14.392,14.392,0,0,0-2.758.351,31.224,31.224,0,0,0-10.714,5.037c-4.347,3.049-8.2,7.154-9.659,10.843L7.728,28.323A14.033,14.033,0,0,1,5.379,17.767ZM36.3,44.448c-7.062,4.953-13.264,5.7-14.433,4.037s1.646-7.243,8.708-12.2a28.165,28.165,0,0,1,9.609-4.55,11.188,11.188,0,0,1,2.376-.288A2.944,2.944,0,0,1,45,32.26C46.166,33.924,43.358,39.5,36.3,44.448Z" transform="translate(-2.086 -3)" fill="currentColor"/>
      <path id="Path_189" data-name="Path 189" d="M76.755,6.127a17.2,17.2,0,0,0-23.962,4.2L38.525,30.67l.023.016C35.827,35,41.376,42.247,48.1,46.965c4.466,3.133,9.807,5.406,13.812,5.406a5.637,5.637,0,0,0,4.9-2.12h0L80.96,30.089a17.2,17.2,0,0,0-4.2-23.962ZM49.868,44.448C42.813,39.5,40,33.924,41.171,32.26a2.942,2.942,0,0,1,2.436-.811,11.177,11.177,0,0,1,2.376.288,28.165,28.165,0,0,1,9.609,4.55c7.062,4.954,9.875,10.533,8.708,12.2S56.933,49.4,49.868,44.448ZM78.443,28.323,67.017,44.614c-1.459-3.688-5.312-7.794-9.659-10.843a31.224,31.224,0,0,0-10.714-5.037,14.367,14.367,0,0,0-2.758-.35L55.31,12.1A14.128,14.128,0,0,1,78.443,28.323Z" transform="translate(17.14 -3)" fill="currentColor"/>
      <path id="Path_190" data-name="Path 190" d="M47.011,42.534a6.114,6.114,0,1,0,6.113,6.113A6.12,6.12,0,0,0,47.011,42.534Zm0,9.153a3.039,3.039,0,1,1,3.038-3.039A3.043,3.043,0,0,1,47.011,51.687Z" transform="translate(18.783 18.259)" fill="currentColor"/>
      <path id="Path_191" data-name="Path 191" d="M26.647,48.648a6.113,6.113,0,1,0,6.113-6.113A6.121,6.121,0,0,0,26.647,48.648Zm6.113-3.038a3.039,3.039,0,1,1-3.038,3.038A3.042,3.042,0,0,1,32.761,45.61Z" transform="translate(11.121 18.259)" fill="currentColor"/>
      <path id="Path_192" data-name="Path 192" d="M38.857,34.17a6.113,6.113,0,1,0,6.113,6.113A6.12,6.12,0,0,0,38.857,34.17Zm0,9.151a3.038,3.038,0,1,1,3.038-3.038A3.042,3.042,0,0,1,38.857,43.321Z" transform="translate(14.398 13.761)" fill="currentColor"/>
      <path id="Path_193" data-name="Path 193" d="M47.011,59.046a6.113,6.113,0,1,0,6.113,6.113A6.12,6.12,0,0,0,47.011,59.046Zm0,9.151a3.038,3.038,0,1,1,3.038-3.038A3.042,3.042,0,0,1,47.011,68.2Z" transform="translate(18.783 27.137)" fill="currentColor"/>
      <path id="Path_194" data-name="Path 194" d="M32.761,59.046a6.113,6.113,0,1,0,6.113,6.113A6.12,6.12,0,0,0,32.761,59.046Zm0,9.151A3.038,3.038,0,1,1,35.8,65.159,3.042,3.042,0,0,1,32.761,68.2Z" transform="translate(11.121 27.137)" fill="currentColor"/>
      <path id="Path_195" data-name="Path 195" d="M38.857,50.681a6.113,6.113,0,1,0,6.113,6.113A6.12,6.12,0,0,0,38.857,50.681Zm0,9.151a3.038,3.038,0,1,1,3.038-3.038A3.042,3.042,0,0,1,38.857,59.832Z" transform="translate(14.398 22.639)" fill="currentColor"/>
    </g>
    <g id="Ellipse_103" data-name="Ellipse 103" transform="translate(4262.587 -12550.551)" fill="none" stroke="currentColor" stroke-width="5">
      <ellipse cx="83.5" cy="84" rx="83.5" ry="84" stroke="none"/>
      <ellipse cx="83.5" cy="84" rx="81" ry="81.5" fill="none"/>
    </g>
  </g>
</svg>
