<svg xmlns="http://www.w3.org/2000/svg" width="119" height="120" viewBox="0 0 119 120">
  <g id="Group_562" data-name="Group 562" transform="translate(-617 -3069)">
    <g id="Group_273" data-name="Group 273" transform="translate(617 3069.478)">
      <g id="Ellipse_53" data-name="Ellipse 53" transform="translate(0 -0.478)" fill="none" stroke="currentColor" stroke-width="5">
        <ellipse cx="59.5" cy="60" rx="59.5" ry="60" stroke="none"/>
        <ellipse cx="59.5" cy="60" rx="57" ry="57.5" fill="none"/>
      </g>
    </g>
    <g id="noun_drugs_3723712" transform="translate(632.906 3084.188)">
      <path id="Path_170" data-name="Path 170" d="M51.513,71.5V35.025a5.683,5.683,0,0,0-5.676-5.677H43.8V25.369h1.64a3.442,3.442,0,0,0,3.438-3.438V15.885a3.442,3.442,0,0,0-3.438-3.438H16.411a3.442,3.442,0,0,0-3.438,3.438v6.045a3.442,3.442,0,0,0,3.438,3.438H18.05v3.979H16.012a5.684,5.684,0,0,0-5.677,5.677V71.5a5.683,5.683,0,0,0,5.677,5.676H45.837A5.683,5.683,0,0,0,51.513,71.5ZM13.235,44.826H48.612V61.7H13.235Zm2.639-22.9V15.885a.537.537,0,0,1,.537-.537H45.437a.537.537,0,0,1,.537.537v6.045a.537.537,0,0,1-.537.537H16.411A.537.537,0,0,1,15.874,21.931Zm5.077,3.438H40.9v3.979H20.951Zm-4.939,6.88H45.837a2.779,2.779,0,0,1,2.775,2.776v6.9H13.235v-6.9A2.779,2.779,0,0,1,16.012,32.249ZM13.235,71.5V64.6H48.612v6.9a2.778,2.778,0,0,1-2.775,2.776H16.012A2.779,2.779,0,0,1,13.235,71.5Z" transform="translate(0 0)" fill="currentColor"/>
      <path id="Path_171" data-name="Path 171" d="M54.9,32.345a7.545,7.545,0,0,0-5.371,2.225l-6.422,6.422,0,0,0,0-6.422,6.421a7.607,7.607,0,0,0,0,10.742h0a7.606,7.606,0,0,0,10.742,0L60.274,45.313A7.6,7.6,0,0,0,54.9,32.345ZM45.374,56.109a4.7,4.7,0,0,1-6.64-6.64l5.4-5.4,6.64,6.64ZM58.223,43.262l-5.4,5.4-6.64-6.64,5.4-5.4a4.808,4.808,0,0,1,6.64,0A4.7,4.7,0,0,1,58.223,43.262Z" transform="translate(20.36 16.79)" fill="currentColor"/>
      <path id="Path_172" data-name="Path 172" d="M54.9,32.345a7.545,7.545,0,0,0-5.371,2.225l-6.422,6.422,0,0,0,0-6.422,6.421a7.607,7.607,0,0,0,0,10.742h0a7.606,7.606,0,0,0,10.742,0L60.274,45.313A7.6,7.6,0,0,0,54.9,32.345ZM45.374,56.109a4.7,4.7,0,0,1-6.64-6.64l5.4-5.4,6.64,6.64ZM58.223,43.262l-5.4,5.4-6.64-6.64,5.4-5.4a4.808,4.808,0,0,1,6.64,0A4.7,4.7,0,0,1,58.223,43.262Z" transform="translate(19.36 -1.211)" fill="currentColor"/>
    </g>
  </g>
</svg>
