<svg xmlns="http://www.w3.org/2000/svg" width="167" height="167" viewBox="0 0 167 167">
  <g id="Group_549" data-name="Group 549" transform="translate(-3970.587 12848.551)">
    <g id="Ellipse_51" data-name="Ellipse 51" transform="translate(3970.587 -12848.551)" fill="none" stroke="currentColor" stroke-width="5">
      <circle cx="83.5" cy="83.5" r="83.5" stroke="none"/>
      <circle cx="83.5" cy="83.5" r="81" fill="none"/>
    </g>
    <g id="noun_cell_3732471" transform="translate(4007.034 -12809.556)">
      <path id="Path_93" data-name="Path 93" d="M94.881,26.272,83.85,30.6,76.256,17.458l8.315-8.315a1.842,1.842,0,0,0-2.605-2.605l-8.777,8.777H55.764a1.854,1.854,0,0,0-1.608.924L45.583,31.058H28.454a1.854,1.854,0,0,0-1.608.924L18.07,47.17,6.17,51.827a1.844,1.844,0,0,0,.684,3.566,1.794,1.794,0,0,0,.684-.129L18.569,50.94,26.163,64.1l-8.315,8.315a1.84,1.84,0,0,0,0,2.605,1.815,1.815,0,0,0,1.312.536,1.893,1.893,0,0,0,1.312-.536l8.777-8.777H45.6l8.13,14.08-4.268,11.9a1.843,1.843,0,0,0,1.109,2.365,1.8,1.8,0,0,0,.628.111,1.843,1.843,0,0,0,1.737-1.22l4.1-11.493h15.6l4.213,11.493a1.843,1.843,0,0,0,1.737,1.22,1.877,1.877,0,0,0,.628-.111,1.843,1.843,0,0,0,1.109-2.365l-4.361-11.9,8.666-15a1.836,1.836,0,0,0,0-1.848L76.053,48.63l8.259-14.265,11.9-4.656a1.843,1.843,0,1,0-1.33-3.437ZM29.526,34.735H45.565l5.211,9,2.846,4.915L45.583,62.562H29.526L21.488,48.648ZM72.875,78.3H56.818L48.78,64.391l8.038-13.914H72.875l8.038,13.914Zm0-31.5H56.818l-2.365-4.084L48.78,32.905l8.038-13.9H72.875l8.038,13.914Z" transform="translate(-4.992 -5.997)" fill="currentColor"/>
    </g>
  </g>
</svg>
