<svg xmlns="http://www.w3.org/2000/svg" width="167" height="168" viewBox="0 0 167 168">
  <g id="Group_552" data-name="Group 552" transform="translate(-3974.587 12550.551)">
    <g id="Ellipse_102" data-name="Ellipse 102" transform="translate(3974.587 -12550.551)" fill="none" stroke="currentColor" stroke-width="5">
      <ellipse cx="83.5" cy="84" rx="83.5" ry="84" stroke="none"/>
      <ellipse cx="83.5" cy="84" rx="81" ry="81.5" fill="none"/>
    </g>
    <path id="Union_4" data-name="Union 4" d="M45.539,34.577v-.012H17.708v.012H0V0H63.247V34.577ZM20.582,20.558H28.69v8.11h5.9v-8.11H42.7v-5.9h-8.11V6.551h-5.9v8.108H20.582Z" transform="translate(4028.06 -12498.083)" fill="currentColor"/>
    <g id="noun_sticker_146174" transform="translate(4005.809 -12518.75)">
      <g id="Group_424" data-name="Group 424" transform="translate(0 0)">
        <path id="Path_161" data-name="Path 161" d="M120.564,70.864,113.339,63.2l3.833-9.878a2.237,2.237,0,0,0-1.18-2.8l-9.583-4.276-.295-10.468a2.377,2.377,0,0,0-2.212-2.212l-10.468-.295-4.276-9.583a2.237,2.237,0,0,0-2.8-1.179L76.48,26.338l-7.667-7.224a2.138,2.138,0,0,0-3.1,0L58.05,26.338,48.172,22.5a2.237,2.237,0,0,0-2.8,1.179l-4.276,9.583-10.468.295a2.377,2.377,0,0,0-2.212,2.212L28.12,46.242l-9.583,4.276a2.237,2.237,0,0,0-1.18,2.8L21.19,63.2l-7.077,7.667a2.138,2.138,0,0,0,0,3.1l7.224,7.667L17.5,91.505a2.237,2.237,0,0,0,1.18,2.8l9.583,4.276.295,10.468a2.377,2.377,0,0,0,2.212,2.212l10.468.295,4.276,9.583a2.237,2.237,0,0,0,2.8,1.179l9.878-3.833,7.667,7.224a2.138,2.138,0,0,0,2.949,0l7.667-7.224,9.878,3.833a2.127,2.127,0,0,0,2.654-.885l31.847-47.622A2.619,2.619,0,0,0,120.564,70.864Zm-30.225,40.4-1.622-5.16,5.75-5.308A2.167,2.167,0,0,0,95.2,98.73L93.582,89l9.583-2.212a2.318,2.318,0,0,0,1.622-1.474l2.654-7.372L112.9,77.5Zm-4.128,6.045-9.436-3.686a2.31,2.31,0,0,0-2.359.442l-7.077,6.782-7.077-6.782a2.112,2.112,0,0,0-1.474-.59,1.1,1.1,0,0,0-.737.147l-9.141,3.539-3.981-8.994a2.272,2.272,0,0,0-1.917-1.327l-9.878-.295-.295-9.878a2.1,2.1,0,0,0-1.327-1.917l-8.994-3.981,3.539-9.141a2.31,2.31,0,0,0-.442-2.359l-6.782-6.93,6.782-7.077a2.249,2.249,0,0,0,.442-2.359l-3.539-9.141,8.994-3.981a2.272,2.272,0,0,0,1.327-1.917l.295-9.878,9.878-.295a2.1,2.1,0,0,0,1.917-1.327l3.981-8.994,9.141,3.539a2.31,2.31,0,0,0,2.359-.442l7.077-6.782,7.077,6.782a2.249,2.249,0,0,0,2.359.442l9.141-3.539,3.981,8.994a2.272,2.272,0,0,0,1.917,1.327l9.878.295.295,9.878a2.1,2.1,0,0,0,1.327,1.917l8.994,3.981L108.621,62.9a2.31,2.31,0,0,0,.442,2.359l6.93,7.372-.147.295-10.321.885a2.242,2.242,0,0,0-1.917,1.474l-2.8,7.667L90.339,85.313a2.051,2.051,0,0,0-1.622,2.506l1.769,10.616-5.9,5.455a2.293,2.293,0,0,0-.59,2.359l3.244,9.878Z" transform="translate(-13.45 -18.45)" fill="currentColor"/>
      </g>
    </g>
  </g>
</svg>
